Coordinates
version=1
nRows=12
nColumns=42
inDegrees=yes

Units are S.I. units (second, meters, Newtons, ...)
If the header above contains a line with 'inDegrees', this indicates whether rotational values are in degrees (yes) or radians (no).

endheader
time	pelvis_tilt	pelvis_list	pelvis_rotation	pelvis_tx	pelvis_ty	pelvis_tz	hip_flexion_r	hip_adduction_r	hip_rotation_r	knee_angle_r	knee_adduction_r	knee_angle_r_beta	ankle_angle_r	subtalar_angle_r	mtp_angle_r	hip_flexion_l	hip_adduction_l	hip_rotation_l	knee_angle_l	knee_adduction_l	knee_angle_l_beta	ankle_angle_l	subtalar_angle_l	mtp_angle_l	lumbar_extension	lumbar_bending	lumbar_rotation	arm_flex_r	arm_add_r	arm_rot_r	elbow_flex_r	pro_sup_r	wrist_flex_r	wrist_dev_r	arm_flex_l	arm_add_l	arm_rot_l	elbow_flex_l	pro_sup_l	wrist_flex_l	wrist_dev_l
      0.92000000	      7.81016930	      0.07466198	      9.05614279	     -0.62458441	      0.87227368	      0.16368000	     10.76331133	     -0.28206148	     -5.34707115	     60.84907178	      0.43405675	      1.06201665	     18.29785292	    -15.87323173	     -7.90956640	      7.14850142	      5.54170486	     -4.68691725	     28.79239813	     -5.58061124	      0.50252215	     21.92673652	      1.40923066	     -7.90956640	    -37.13806809	      4.80483019	     -7.11638625	     14.99673702	    -10.81915798	      6.81906800	     43.01402679	     90.00000001	      0.00000000	      0.00000000	     16.45968311	    -15.46833283	     -5.20611694	     37.28001152	     90.00000001	      0.00000000	      0.00000000
      0.93000000	      7.74808583	     -0.04781428	      9.19607122	     -0.61667472	      0.87253027	      0.16307320	     11.91054958	     -0.24869838	     -5.06637903	     59.18394488	      0.55671612	      1.03295470	     18.47172484	    -15.63483993	     -7.89645808	      6.61826872	      5.40308130	     -4.50524822	     28.79723015	     -5.61664841	      0.50260648	     22.47002817	      1.49283693	     -7.89645808	    -37.18984331	      5.07147890	     -7.21507398	     14.68372104	    -10.70606017	      6.65860779	     42.14963063	     90.00000001	      0.00000000	      0.00000000	     17.09290401	    -15.87947526	     -4.29223295	     37.98378826	     90.00000001	      0.00000000	      0.00000000
      0.94000000	      7.56131848	     -0.11808411	      9.30111462	     -0.60875550	      0.87236516	      0.16243236	     13.17634407	     -0.32940665	     -4.84263199	     57.41396105	      0.64654612	      1.00206266	     18.60815352	    -15.24595811	     -7.88793541	      6.24502265	      5.44140430	     -4.43775742	     28.80274530	     -5.87569939	      0.50270274	     22.94806294	      1.48835215	     -7.88793541	    -37.09835972	      5.27032738	     -7.31124947	     14.24189394	    -10.62358836	      6.57054569	     41.52866138	     90.00000001	      0.00000000	      0.00000000	     17.75631009	    -16.11367334	     -3.81282925	     38.57446380	     90.00000001	      0.00000000	      0.00000000
      0.95000000	      7.55330745	     -0.24875529	      9.42493991	     -0.60066068	      0.87250132	      0.16215665	     14.01387496	     -0.27913075	     -4.45263693	     55.11735040	      1.00047786	      0.96197924	     18.58157413	    -14.97840450	     -7.87712343	      5.68000760	      5.21262716	     -4.22300977	     28.88659321	     -5.83423001	      0.50416616	     23.55415586	      1.52712179	     -7.87712343	    -37.17502810	      5.49684636	     -7.39607939	     13.88666490	    -10.41787692	      6.33140546	     40.63270434	     90.00000001	      0.00000000	      0.00000000	     18.33215311	    -16.49359582	     -2.99010855	     39.26526739	     90.00000001	      0.00000000	      0.00000000
      0.96000000	      7.19227030	     -0.12897990	      9.39225438	     -0.59270893	      0.87174439	      0.16183176	     15.37098977	     -0.59235528	     -4.29744553	     53.02542818	      0.98892950	      0.92546831	     18.42274277	    -14.43072239	     -7.87101499	      5.48908367	      5.48042612	     -4.23621753	     28.93074401	     -6.07896221	      0.50493674	     23.85471995	      1.56814298	     -7.87101499	    -36.92127095	      5.38914320	     -7.48962477	     13.30515566	    -10.38354392	      6.24933947	     40.26281029	     90.00000001	      0.00000000	      0.00000000	     18.93481924	    -16.68340783	     -2.73144748	     39.83287723	     90.00000001	      0.00000000	      0.00000000
      0.97000000	      7.31754015	     -0.39003298	      9.64228318	     -0.58441977	      0.87190084	      0.16142266	     15.68158806	     -0.39003985	     -3.81046212	     49.92569545	      1.57727475	      0.87136777	     18.31657724	    -14.47263430	     -7.86135547	      4.79289923	      5.09423890	     -4.03741426	     29.03946646	     -6.12075441	      0.50683430	     24.72795131	      1.53012670	     -7.86135547	    -37.07718318	      5.84508796	     -7.59847589	     13.07825593	    -10.16962166	      5.79438657	     39.24665265	     90.00000001	      0.00000000	      0.00000000	     19.45398675	    -17.13767747	     -1.80123149	     40.61021523	     90.00000001	      0.00000000	      0.00000000
      0.98000000	      7.43261042	     -0.45413219	      9.62614877	     -0.57597106	      0.87203715	      0.16161126	     15.95494157	     -0.23576989	     -3.25536162	     46.69819519	      1.81000544	      0.81503726	     17.63878366	    -14.90368035	     -7.84780882	      3.92352882	      4.84632384	     -3.97881033	     28.85966249	     -6.01986465	      0.50369613	     25.18050776	      1.86310854	     -7.84780882	    -37.28684771	      5.93992092	     -7.54928044	     12.62775476	     -9.96162926	      5.13752938	     38.69519300	     90.00000001	      0.00000000	      0.00000000	     19.97476421	    -17.57661147	     -0.94123333	     41.45893327	     90.00000001	      0.00000000	      0.00000000
      0.99000000	      7.23713174	     -0.42990990	      9.71896834	     -0.56775970	      0.87127937	      0.16132331	     16.62807360	     -0.46225749	     -3.13155399	     43.60923346	      2.04474503	      0.76112471	     17.38261536	    -14.78248266	     -7.83836353	      3.56805099	      4.90847391	     -4.07320341	     28.96020370	     -6.26091968	      0.50545091	     25.79351236	      1.92088980	     -7.83836353	    -37.14033980	      5.99390721	     -7.67928794	     12.15534221	     -9.86417000	      4.76664064	     38.19151061	     90.00000001	      0.00000000	      0.00000000	     20.45423389	    -17.82155014	     -0.53914906	     42.11745039	     90.00000001	      0.00000000	      0.00000000
      1.00000000	      7.22649668	     -0.46982762	      9.76106601	     -0.55930772	      0.87090459	      0.16139023	     16.82310711	     -0.42124072	     -2.91545888	     39.98335034	      2.12310779	      0.69784111	     16.89873278	    -14.94065872	     -7.82701983	      2.92703149	      4.70609587	     -4.19923214	     28.94180723	     -6.25072537	      0.50512983	     26.39813040	      2.28422496	     -7.82701983	    -37.19148969	      6.08918976	     -7.70121087	     11.71324850	     -9.71949407	      4.15325153	     37.66022801	     90.00000001	      0.00000000	      0.00000000	     20.88849450	    -18.13699372	     -0.03960678	     42.90757659	     90.00000001	      0.00000000	      0.00000000
      1.01000000	      7.24708253	     -0.48532454	      9.70429320	     -0.55076946	      0.87051184	      0.16171574	     16.89246141	     -0.34598650	     -2.68637803	     36.23082127	      2.13220000	      0.63234712	     16.12531340	    -15.42796474	     -7.80583272	      2.18168055	      4.53065523	     -4.59882852	     28.76424057	     -6.38208328	      0.50203070	     27.02945181	      3.13244976	     -7.80583272	    -37.28808970	      6.10521296	     -7.63622002	     11.21726327	     -9.54675023	      3.35374385	     37.37013435	     90.00000001	      0.00000000	      0.00000000	     21.34625963	    -18.40709315	      0.37891261	     43.63642877	     90.00000001	      0.00000000	      0.00000000
      1.02000000	      6.61251530	     -0.12019608	      9.53553782	     -0.54275114	      0.86849277	      0.16191338	     18.20851739	     -1.00925284	     -3.35468421	     33.65269520	      1.85632595	      0.58735033	     16.03903884	    -14.78160503	     -7.80111679	      2.25208837	      5.03609880	     -4.88384412	     28.80834107	     -6.55200557	      0.50280040	     27.36177155	      3.12534703	     -7.80111679	    -36.73884517	      5.61831346	     -7.73178940	     10.56556377	     -9.54110435	      3.26468458	     37.17678496	     90.00000001	      0.00000000	      0.00000000	     21.76226266	    -18.53014734	      0.42207054	     44.18721373	     90.00000001	      0.00000000	      0.00000000
      1.03000000	      7.02541308	     -0.49704066	      9.75691123	     -0.53379718	      0.86881897	      0.16216212	     17.07076747	     -0.39247905	     -2.99061113	     28.63026645	      1.97234883	      0.49969242	     15.21826867	    -15.12669389	     -7.77769164	      1.18617022	      4.25308366	     -5.32238878	     28.81873324	     -6.67180225	      0.50298178	     28.38505148	      4.38225531	     -7.77769164	    -37.16963849	      6.17050030	     -7.69460794	     10.27611917	     -9.30630258	      2.12420480	     36.73081191	     90.00000001	      0.00000000	      0.00000000	     22.05178688	    -18.85688594	      0.83569550	     45.12074440	     90.00000001	      0.00000000	      0.00000000
